# xmcd
#
# Track frame offsets:
#	150
#	13423
#	33151
#	46916
#	63359
#	80029
#	91497
#	106675
#
# Disc length: 1661 seconds
#
# Revision: 1
# Processed by: cddbd v1.4PL0 Copyright (c) Steve Scherf et al.
# Submitted via: audiograbber 1.80
#
DISCID=5d067b08
DTITLE=Jamie Beaver - Danger Zone
DYEAR=1900
DGENRE=
TTITLE0=New Love Fever
TTITLE1=I Wanna Be Yours
TTITLE2=Who Will Help Me
TTITLE3=Mirror, Mirror
TTITLE4=Somebody's Angel
TTITLE5=Wall Flower Blues
TTITLE6=Danger Zone
TTITLE7=I Know You, You're An Heartache
EXTD=
EXTT0=
EXTT1=
EXTT2=
EXTT3=
EXTT4=
EXTT5=
EXTT6=
EXTT7=
PLAYORDER=
